<svg width="54" height="54" viewBox="0 0 54 54" fill="none" xmlns="http://www.w3.org/2000/svg">
<path d="M24.75 29.2505C24.75 28.0078 25.7574 27.0005 27 27.0005H27.0202C28.2628 27.0005 29.2702 28.0078 29.2702 29.2505C29.2702 30.4931 28.2628 31.5005 27.0202 31.5005H27C25.7574 31.5005 24.75 30.4931 24.75 29.2505Z" fill="#199491"/>
<path fill-rule="evenodd" clip-rule="evenodd" d="M36 12.8977H28.6875V14.9065C28.7182 14.9213 28.7487 14.9364 28.7789 14.9515C29.2381 15.1822 29.7467 15.5093 30.285 15.8554L35.0923 18.9458C36.0495 19.5611 36.8648 20.0852 37.5023 20.5858C38.1816 21.1192 38.7582 21.6995 39.1808 22.4737C39.6035 23.2479 39.7798 24.0467 39.8612 24.9066C39.9376 25.7135 39.9375 26.6826 39.9375 27.8206V27.9308C40.9551 28.183 41.9008 28.4214 42.7388 28.6703C43.92 29.0212 45.0306 29.432 45.9691 30.0295C46.9456 30.6511 47.7302 31.4706 48.2449 32.5917C48.7438 33.6782 48.9379 34.9365 48.9379 36.366V47.813H49.5C50.432 47.813 51.1875 48.5685 51.1875 49.5005C51.1875 50.4325 50.432 51.188 49.5 51.188H47.2875L47.2504 51.1884L47.2133 51.188H6.78707L6.75 51.1884L6.71293 51.188H4.5C3.56802 51.188 2.8125 50.4325 2.8125 49.5005C2.8125 48.5685 3.56802 47.813 4.5 47.813H5.0625V36.366C5.0625 34.9365 5.25656 33.6782 5.75547 32.5917C6.27024 31.4706 7.05481 30.6511 8.03125 30.0295C8.96982 29.432 10.0804 29.0212 11.2616 28.6703C12.0995 28.4214 13.0451 28.1831 14.0625 27.9309V27.8206C14.0625 26.6827 14.0624 25.7135 14.1388 24.9066C14.2202 24.0467 14.3965 23.2479 14.8192 22.4737C15.2418 21.6995 15.8184 21.1192 16.4977 20.5858C17.1352 20.0852 17.9505 19.5611 18.9077 18.9458L23.715 15.8554C24.2532 15.5093 24.7619 15.1822 25.2211 14.9515C25.2513 14.9363 25.2818 14.9213 25.3125 14.9065L25.3125 6.60601C25.3123 6.14129 25.3122 5.64057 25.3686 5.21819C25.4346 4.72471 25.604 4.09382 26.1328 3.56191C27.0331 2.65623 28.2869 2.77888 28.91 2.88814C29.6756 3.02239 30.4991 3.32527 31.2428 3.64987C32.7508 4.30812 34.3019 5.2228 35.1304 5.73297C37.2842 7.05914 37.6875 9.55203 37.6875 11.2102C37.6875 12.1422 36.932 12.8977 36 12.8977ZM29.8926 6.74304C29.4263 6.53952 29.0194 6.38978 28.6883 6.2968C28.6876 6.41123 28.6875 6.53854 28.6875 6.6835V9.52269H34.0529C33.888 9.09152 33.651 8.78553 33.3608 8.60684C32.5688 8.11914 31.179 7.30454 29.8926 6.74304ZM26.7362 17.9673C26.4566 18.1078 26.1 18.3344 25.4791 18.7336L20.7957 21.7443C19.7585 22.4111 19.0792 22.8499 18.5822 23.2402C18.113 23.6086 17.909 23.8572 17.7814 24.0909C17.6538 24.3247 17.555 24.6307 17.4988 25.2246C17.4392 25.8537 17.4375 26.6624 17.4375 27.8954V29.2157C17.438 29.2401 17.438 29.2644 17.4375 29.2886V47.813H25.3125V40.5005C25.3125 39.5685 26.068 38.813 27 38.813C27.932 38.813 28.6875 39.5685 28.6875 40.5005V47.813H36.5625V27.8954C36.5625 26.6624 36.5608 25.8537 36.5012 25.2246C36.445 24.6307 36.3462 24.3247 36.2186 24.0909C36.091 23.8572 35.887 23.6086 35.4178 23.2402C34.9208 22.8499 34.2415 22.4111 33.2043 21.7443L28.5209 18.7336C27.9 18.3344 27.5434 18.1078 27.2638 17.9673C27.1381 17.9042 27.0667 17.879 27.0308 17.8688C27.014 17.864 27.0055 17.8627 27.0032 17.8623L27 17.8621L26.9968 17.8623C26.9945 17.8627 26.986 17.864 26.9692 17.8688C26.9333 17.879 26.8619 17.9042 26.7362 17.9673ZM39.9375 47.813H45.5629V36.366C45.5629 35.2174 45.4028 34.49 45.1778 34C44.9687 33.5445 44.6595 33.1966 44.1568 32.8766C43.6162 32.5325 42.8623 32.2277 41.7778 31.9056C41.2192 31.7397 40.611 31.5796 39.9375 31.4095V47.813ZM8.4375 47.813H14.0625L14.0625 31.4096C13.3891 31.5796 12.781 31.7397 12.2226 31.9056C11.1381 32.2277 10.3842 32.5325 9.84359 32.8766C9.34089 33.1966 9.03175 33.5445 8.82259 34C8.59758 34.49 8.4375 35.2174 8.4375 36.366V47.813Z" fill="#199491"/>
</svg>
