<svg width="24" height="24" viewBox="0 0 24 24" fill="none" xmlns="http://www.w3.org/2000/svg">
<path d="M23.7609 7.20029C23.7609 7.20029 23.5266 5.54561 22.8047 4.81904C21.8906 3.86279 20.8688 3.85811 20.4 3.80186C17.0438 3.55811 12.0047 3.55811 12.0047 3.55811H11.9953C11.9953 3.55811 6.95625 3.55811 3.6 3.80186C3.13125 3.85811 2.10938 3.86279 1.19531 4.81904C0.473438 5.54561 0.24375 7.20029 0.24375 7.20029C0.24375 7.20029 0 9.14561 0 11.0862V12.905C0 14.8456 0.239062 16.7909 0.239062 16.7909C0.239062 16.7909 0.473437 18.4456 1.19062 19.1722C2.10469 20.1284 3.30469 20.0956 3.83906 20.1987C5.76094 20.3815 12 20.4378 12 20.4378C12 20.4378 17.0438 20.4284 20.4 20.1894C20.8688 20.1331 21.8906 20.1284 22.8047 19.1722C23.5266 18.4456 23.7609 16.7909 23.7609 16.7909C23.7609 16.7909 24 14.8503 24 12.905V11.0862C24 9.14561 23.7609 7.20029 23.7609 7.20029ZM9.52031 15.1128V8.36748L16.0031 11.7519L9.52031 15.1128Z" fill="white"/>
</svg>
