<svg width="54" height="54" viewBox="0 0 54 54" fill="none" xmlns="http://www.w3.org/2000/svg">
<path fill-rule="evenodd" clip-rule="evenodd" d="M17.4227 7.4141C17.7952 7.27863 18.2036 7.27863 18.5761 7.4141L30.9511 11.9141C31.5627 12.1365 31.9919 12.6908 32.0541 13.3385C32.1164 13.9863 31.8006 14.6122 31.2426 14.947L26.4369 17.8304V21.125C26.4369 25.8646 22.7166 29.8125 17.9994 29.8125C13.2822 29.8125 9.56189 25.8646 9.56189 21.125V17.8304L7.31189 16.4804V22.5C7.31189 23.432 6.55637 24.1875 5.62439 24.1875C4.69241 24.1875 3.93689 23.432 3.93689 22.5V13.5C3.93689 12.7904 4.38082 12.1566 5.0477 11.9141L17.4227 7.4141ZM22.8991 21.3155C22.9546 21.3307 23.0072 21.3456 23.0571 21.3604C22.939 24.2382 20.6658 26.4375 17.9994 26.4375C15.333 26.4375 13.0598 24.2382 12.9417 21.3604C12.9915 21.3456 13.0442 21.3307 13.0997 21.3155C13.9577 21.0815 15.4917 20.8125 17.9994 20.8125C20.5071 20.8125 22.041 21.0815 22.8991 21.3155ZM9.52996 13.8754L12.1176 15.428C12.6259 15.733 12.9369 16.2822 12.9369 16.875V17.8846C14.1186 17.6336 15.7579 17.4375 17.9994 17.4375C20.2408 17.4375 21.8802 17.6336 23.0619 17.8846V16.875C23.0619 16.2822 23.3729 15.733 23.8812 15.428L26.4688 13.8754L17.9994 10.7956L9.52996 13.8754Z" fill="#199491"/>
<path fill-rule="evenodd" clip-rule="evenodd" d="M39.9669 15.2949C39.5849 15.1517 39.1639 15.1517 38.7819 15.2949L29.7819 18.6699C29.1647 18.9014 28.7387 19.4711 28.6913 20.1285C28.6438 20.786 28.9836 21.4109 29.5612 21.7286L32.7778 23.4978V25.4659C32.7778 29.1091 35.7312 32.0625 39.3744 32.0625C43.0176 32.0625 45.971 29.1091 45.971 25.4659V23.4978L49.1876 21.7286C49.7652 21.4109 50.105 20.786 50.0575 20.1285C50.0101 19.4711 49.5841 18.9014 48.9669 18.6699L39.9669 15.2949ZM39.3744 28.6875C37.7717 28.6875 36.4423 27.5171 36.1943 25.9844C36.8175 25.8478 37.8308 25.7096 39.3744 25.7096C40.918 25.7096 41.9313 25.8478 42.5545 25.9844C42.3065 27.5171 40.9772 28.6875 39.3744 28.6875ZM39.3744 22.3346C40.7131 22.3346 41.7687 22.4265 42.596 22.5593V22.5C42.596 21.8846 42.931 21.318 43.4703 21.0214L44.344 20.5408L39.3744 18.6773L34.4048 20.5408L35.2786 21.0214C35.8178 21.318 36.1528 21.8846 36.1528 22.5V22.5593C36.9801 22.4265 38.0357 22.3346 39.3744 22.3346Z" fill="#199491"/>
<path fill-rule="evenodd" clip-rule="evenodd" d="M9.04377 34.36C14.5314 31.2967 21.4685 31.2967 26.9561 34.36C27.1135 34.4479 27.3145 34.554 27.5465 34.6765C28.608 35.237 30.3197 36.1407 31.4899 37.2145C32.2146 37.8795 33.0156 38.8511 33.1638 40.1221C33.3262 41.5156 32.6582 42.7372 31.5551 43.7225C29.7362 45.3471 27.5073 46.6875 24.6136 46.6875H11.3862C8.49256 46.6875 6.26371 45.3471 4.44482 43.7225C3.34167 42.7372 2.67364 41.5156 2.83611 40.1221C2.98431 38.8511 3.7853 37.8795 4.51001 37.2145C5.68017 36.1407 7.39189 35.237 8.4534 34.6765C8.6854 34.554 8.88634 34.4479 9.04377 34.36ZM25.311 37.3069C20.8459 34.8144 15.154 34.8144 10.6888 37.3069C10.4146 37.46 10.1224 37.6156 9.82238 37.7754C8.76131 38.3404 7.60222 38.9576 6.7919 39.7012C6.28391 40.1674 6.19666 40.4421 6.1884 40.513C6.1869 40.5252 6.18267 40.5595 6.22124 40.6418C6.26885 40.7432 6.39162 40.9361 6.69305 41.2053C8.1851 42.538 9.64379 43.3125 11.3862 43.3125H24.6136C26.3561 43.3125 27.8148 42.538 29.3068 41.2053C29.6083 40.9361 29.731 40.7432 29.7786 40.6418C29.8172 40.5595 29.8131 40.5265 29.8116 40.5143C29.8034 40.4434 29.716 40.1674 29.208 39.7012C28.3977 38.9576 27.2387 38.3405 26.1777 37.7755C25.8776 37.6157 25.5854 37.4601 25.311 37.3069Z" fill="#199491"/>
<path fill-rule="evenodd" clip-rule="evenodd" d="M36.4731 38.1015C39.1786 37.311 42.1557 37.6539 44.6123 39.1167C44.8357 39.2497 45.0671 39.3812 45.2999 39.5136C46.0872 39.9612 46.8906 40.418 47.4568 40.9722C47.7061 41.2162 47.7831 41.3653 47.8055 41.4188C47.78 41.4733 47.7106 41.5818 47.5347 41.7493C46.4456 42.7868 45.4602 43.3124 44.3357 43.3124H35.9998C35.0678 43.3124 34.3123 44.068 34.3123 44.9999C34.3123 45.9319 35.0678 46.6874 35.9998 46.6874H44.3357C46.6884 46.6874 48.4686 45.5211 49.8627 44.1929C50.7551 43.3427 51.3009 42.2795 51.1687 41.0706C51.048 39.9659 50.3941 39.1246 49.8176 38.5603C48.8953 37.6575 47.5387 36.8948 46.7503 36.4515C46.5855 36.3589 46.4449 36.2799 46.339 36.2168C43.0567 34.2624 39.1085 33.8153 35.5265 34.862C34.632 35.1234 34.1187 36.0605 34.3801 36.955C34.6415 37.8496 35.5786 38.3629 36.4731 38.1015ZM47.8126 41.4023C47.8192 41.3851 47.8197 41.3767 47.8183 41.3768C47.8177 41.3769 47.8169 41.3783 47.816 41.381C47.8146 41.3852 47.8132 41.3923 47.8126 41.4023Z" fill="#199491"/>
</svg>
