<svg width="16" height="16" viewBox="0 0 16 16" fill="none" xmlns="http://www.w3.org/2000/svg">
<path d="M8.5 5.33331C8.5 5.05717 8.27614 4.83331 8 4.83331C7.72385 4.83331 7.5 5.05717 7.5 5.33331V7.49998H5.33333C5.05719 7.49998 4.83333 7.72384 4.83333 7.99998C4.83333 8.27612 5.05719 8.49998 5.33333 8.49998H7.5V10.6666C7.5 10.9428 7.72385 11.1666 8 11.1666C8.27614 11.1666 8.5 10.9428 8.5 10.6666V8.49998H10.6667C10.9428 8.49998 11.1667 8.27612 11.1667 7.99998C11.1667 7.72384 10.9428 7.49998 10.6667 7.49998H8.5V5.33331Z" fill="#A4A7AE"/>
<path fill-rule="evenodd" clip-rule="evenodd" d="M8 15.1666C4.04195 15.1666 0.833328 11.958 0.833328 7.99998C0.833328 4.04194 4.04195 0.833313 8 0.833313C11.958 0.833313 15.1667 4.04194 15.1667 7.99998C15.1667 11.958 11.958 15.1666 8 15.1666ZM1.83333 7.99998C1.83333 11.4057 4.59424 14.1666 8 14.1666C11.4058 14.1666 14.1667 11.4057 14.1667 7.99998C14.1667 4.59422 11.4058 1.83331 8 1.83331C4.59424 1.83331 1.83333 4.59422 1.83333 7.99998Z" fill="#A4A7AE"/>
</svg>
