<svg width="18" height="18" viewBox="0 0 18 18" fill="none" xmlns="http://www.w3.org/2000/svg">
<path d="M14.6241 4.12502L14.1593 11.6438C14.0405 13.5648 13.9812 14.5253 13.4997 15.2159C13.2616 15.5573 12.9551 15.8455 12.5996 16.062C11.8807 16.5 10.9183 16.5 8.99362 16.5C7.06644 16.5 6.10282 16.5 5.38339 16.0612C5.0277 15.8443 4.7211 15.5556 4.48311 15.2136C4.00176 14.522 3.94369 13.5601 3.82756 11.6364L3.3741 4.12502" stroke="#1F2A37" stroke-width="1.10332" stroke-linecap="round"/>
<path d="M2.2494 4.12503H15.7494M12.0412 4.12503L11.5292 3.06883C11.1891 2.36723 11.019 2.01643 10.7257 1.79764C10.6606 1.74911 10.5917 1.70594 10.5196 1.66856C10.1948 1.50004 9.80497 1.50004 9.02527 1.50004C8.226 1.50004 7.8264 1.50004 7.49616 1.67563C7.42297 1.71454 7.35313 1.75946 7.28736 1.80991C6.99063 2.03756 6.82487 2.4012 6.49336 3.12848L6.03909 4.12503" stroke="#1F2A37" stroke-width="1.10332" stroke-linecap="round"/>
<path d="M7.1246 12.375V7.87496" stroke="#1F2A37" stroke-width="1.10332" stroke-linecap="round"/>
<path d="M10.8746 12.375V7.87496" stroke="#1F2A37" stroke-width="1.10332" stroke-linecap="round"/>
</svg>
