<svg width="16" height="16" viewBox="0 0 16 16" fill="none" xmlns="http://www.w3.org/2000/svg">
<path d="M8.5 5.33337C8.5 5.05723 8.27614 4.83337 8 4.83337C7.72385 4.83337 7.5 5.05723 7.5 5.33337V7.50004H5.33333C5.05719 7.50004 4.83333 7.7239 4.83333 8.00004C4.83333 8.27618 5.05719 8.50004 5.33333 8.50004H7.5V10.6667C7.5 10.9429 7.72385 11.1667 8 11.1667C8.27614 11.1667 8.5 10.9429 8.5 10.6667V8.50004H10.6667C10.9428 8.50004 11.1667 8.27618 11.1667 8.00004C11.1667 7.7239 10.9428 7.50004 10.6667 7.50004H8.5V5.33337Z" fill="#A4A7AE"/>
<path fill-rule="evenodd" clip-rule="evenodd" d="M8 15.1667C4.04195 15.1667 0.833328 11.9581 0.833328 8.00004C0.833328 4.042 4.04195 0.833374 8 0.833374C11.958 0.833374 15.1667 4.042 15.1667 8.00004C15.1667 11.9581 11.958 15.1667 8 15.1667ZM1.83333 8.00004C1.83333 11.4058 4.59424 14.1667 8 14.1667C11.4058 14.1667 14.1667 11.4058 14.1667 8.00004C14.1667 4.59428 11.4058 1.83337 8 1.83337C4.59424 1.83337 1.83333 4.59428 1.83333 8.00004Z" fill="#A4A7AE"/>
</svg>
