<svg width="9" height="9" viewBox="0 0 9 9" fill="none" xmlns="http://www.w3.org/2000/svg">
<g clip-path="url(#clip0_3_22500)">
<path d="M8.25 4.15501V4.50001C8.24954 5.30867 7.98769 6.09551 7.5035 6.74319C7.01931 7.39088 6.33873 7.86469 5.56326 8.09397C4.78779 8.32326 3.95897 8.29572 3.20043 8.01548C2.44188 7.73524 1.79425 7.2173 1.35411 6.53891C0.913975 5.86052 0.704922 5.05803 0.758129 4.25113C0.811336 3.44422 1.12395 2.67613 1.64935 2.06141C2.17476 1.44669 2.88479 1.01828 3.67357 0.840065C4.46235 0.661851 5.2876 0.743387 6.02625 1.07251M8.25 1.50001L4.5 5.25376L3.375 4.12876" stroke="#039855" stroke-width="0.75" stroke-linecap="round" stroke-linejoin="round"/>
</g>
<defs>
<clipPath id="clip0_3_22500">
<rect width="9" height="9" fill="white"/>
</clipPath>
</defs>
</svg>
