<svg width="33" height="33" viewBox="0 0 33 33" fill="none" xmlns="http://www.w3.org/2000/svg">
<path d="M27.5 17.875V14.6532C27.5 13.5291 27.5 12.9671 27.2907 12.4617C27.0813 11.9563 26.6839 11.5589 25.889 10.7641L19.3764 4.25134C18.6904 3.56538 18.3475 3.22238 17.9224 3.01916C17.834 2.97687 17.7436 2.93937 17.6512 2.90676C17.2069 2.75 16.7219 2.75 15.7517 2.75C11.2899 2.75 9.05893 2.75 7.54783 3.96835C7.24255 4.21449 6.96448 4.49255 6.71835 4.79783C5.5 6.30893 5.5 8.53988 5.5 13.0018V17.875M17.875 3.4375V4.125C17.875 8.01409 17.875 9.95863 19.0832 11.1668C20.2914 12.375 22.236 12.375 26.125 12.375H26.8125" stroke="#141B34" stroke-width="2.0625" stroke-linecap="round" stroke-linejoin="round"/>
<path d="M27.1562 22H23.7188C22.9593 22 22.3438 22.6156 22.3438 23.375V26.125M22.3438 26.125V30.25M22.3438 26.125H26.4688M5.84375 30.25V26.8125M5.84375 26.8125V22H8.25C9.57894 22 10.6562 23.0773 10.6562 24.4062C10.6562 25.7352 9.57894 26.8125 8.25 26.8125H5.84375ZM14.0938 22H16.1562C17.6751 22 18.9062 23.2312 18.9062 24.75V27.5C18.9062 29.0188 17.6751 30.25 16.1562 30.25H14.0938V22Z" stroke="#141B34" stroke-width="2.0625" stroke-linecap="round" stroke-linejoin="round"/>
</svg>
