<svg width="979" height="932" viewBox="0 0 979 932" fill="none" xmlns="http://www.w3.org/2000/svg">
<path d="M947.969 233.768C938.41 132.46 897.906 62.9048 833.816 37.8182C740.843 1.32237 621.875 68.3345 525.189 209.507L524.639 208.957L523.951 210.056C445.626 145.175 361.455 123.594 294.338 152.873C252.665 171.086 220.689 206.689 201.021 256.106C144.013 258.58 97.8019 278.374 66.788 314.389C37.3557 348.548 23.7398 394.666 27.6595 448.001C35.1552 550.822 107.773 672.955 216.906 767.047C293.169 833.028 387.449 887.325 488.261 902.859C621.738 923.478 718.837 839.627 792.555 738.318C796.475 732.888 800.326 727.459 804.177 721.96C838.836 672.268 869.781 614.672 894.124 552.54C937.654 441.884 956.702 328.616 947.9 233.906" fill="#F4F4F4"/>
</svg>
