<svg width="655" height="52" viewBox="0 0 655 52" fill="none" xmlns="http://www.w3.org/2000/svg">
<g filter="url(#filter0_dii_8_19319)">
<path d="M2 9C2 4.58172 5.58172 1 10 1H645C649.418 1 653 4.58172 653 9V41C653 45.4183 649.418 49 645 49H10C5.58174 49 2 45.4183 2 41V9Z" fill="#006173"/>
<path d="M10 2H645C648.866 2 652 5.13401 652 9V41C652 44.866 648.866 48 645 48H10C6.13401 48 3 44.866 3 41V9C3 5.13401 6.13401 2 10 2Z" stroke="url(#paint0_linear_8_19319)" stroke-width="2"/>
<path d="M302.333 25.0001H290.667M290.667 25.0001L296.5 30.8334M290.667 25.0001L296.5 19.1667" stroke="white" stroke-width="1.66667" stroke-linecap="round" stroke-linejoin="round"/>
<path d="M314.916 30.552C314.916 30.3067 314.937 30.0187 314.98 29.688C315.023 29.3573 315.103 28.984 315.22 28.568C315.337 28.1413 315.513 27.6667 315.748 27.144L317.716 27.832C317.599 28.1627 317.497 28.4667 317.412 28.744C317.327 29.0107 317.263 29.2613 317.22 29.496C317.177 29.72 317.156 29.944 317.156 30.168C317.156 30.648 317.273 31.064 317.508 31.416C317.753 31.7787 318.084 32.056 318.5 32.248C318.927 32.4507 319.417 32.552 319.972 32.552C320.879 32.552 321.572 32.4027 322.052 32.104C322.543 31.816 322.873 31.3573 323.044 30.728C323.225 30.088 323.295 29.2613 323.252 28.248L322.932 19.288H325.188L325.428 26.856C325.449 27.3893 325.524 27.8 325.652 28.088C325.78 28.376 325.977 28.5733 326.244 28.68C326.521 28.7867 326.879 28.84 327.316 28.84C327.721 28.84 328.009 28.9467 328.18 29.16C328.351 29.3627 328.436 29.6187 328.436 29.928C328.436 30.2587 328.324 30.536 328.1 30.76C327.876 30.9733 327.561 31.08 327.156 31.08C326.921 31.08 326.671 31.048 326.404 30.984C326.137 30.92 325.881 30.8187 325.636 30.68C325.391 30.5413 325.177 30.36 324.996 30.136C324.815 29.9013 324.692 29.6133 324.628 29.272L325.492 28.84C325.492 29.9173 325.364 30.8293 325.108 31.576C324.863 32.3227 324.5 32.9253 324.02 33.384C323.551 33.8427 322.969 34.1733 322.276 34.376C321.593 34.5893 320.804 34.696 319.908 34.696C319.225 34.696 318.58 34.6107 317.972 34.44C317.375 34.2693 316.847 34.0133 316.388 33.672C315.929 33.3307 315.567 32.8987 315.3 32.376C315.044 31.864 314.916 31.256 314.916 30.552ZM327.156 31.08L327.316 28.84C327.7 28.84 328.031 28.8027 328.308 28.728C328.586 28.6533 328.82 28.504 329.012 28.28C329.204 28.0453 329.364 27.704 329.492 27.256C329.631 26.808 329.754 26.2107 329.86 25.464L331.956 25.816C331.935 25.976 331.903 26.1627 331.86 26.376C331.828 26.5893 331.796 26.808 331.764 27.032C331.743 27.2453 331.732 27.448 331.732 27.64C331.732 27.832 331.77 28.0027 331.844 28.152C331.919 28.3013 332.036 28.4293 332.196 28.536C332.367 28.632 332.586 28.7067 332.852 28.76C333.13 28.8133 333.466 28.84 333.86 28.84C334.266 28.84 334.554 28.9467 334.724 29.16C334.895 29.3627 334.98 29.6187 334.98 29.928C334.98 30.2587 334.868 30.536 334.644 30.76C334.431 30.9733 334.116 31.08 333.7 31.08C333.22 31.08 332.783 31.0427 332.388 30.968C332.004 30.8933 331.668 30.7707 331.38 30.6C331.103 30.4187 330.874 30.184 330.692 29.896C330.522 29.5973 330.415 29.2347 330.372 28.808H331.14C330.948 29.32 330.703 29.7307 330.404 30.04C330.116 30.3387 329.791 30.5627 329.428 30.712C329.066 30.8613 328.687 30.9573 328.292 31C327.908 31.0533 327.53 31.08 327.156 31.08ZM331.62 34.792C331.311 34.792 331.044 34.68 330.82 34.456C330.607 34.2427 330.5 33.9867 330.5 33.688C330.5 33.3787 330.607 33.112 330.82 32.888C331.044 32.664 331.311 32.552 331.62 32.552C331.919 32.552 332.175 32.664 332.388 32.888C332.602 33.112 332.708 33.3787 332.708 33.688C332.708 33.9867 332.602 34.2427 332.388 34.456C332.175 34.68 331.919 34.792 331.62 34.792ZM328.852 34.792C328.543 34.792 328.276 34.68 328.052 34.456C327.839 34.2427 327.732 33.9867 327.732 33.688C327.732 33.3787 327.839 33.112 328.052 32.888C328.276 32.664 328.543 32.552 328.852 32.552C329.151 32.552 329.407 32.664 329.62 32.888C329.834 33.112 329.94 33.3787 329.94 33.688C329.94 33.9867 329.834 34.2427 329.62 34.456C329.407 34.68 329.151 34.792 328.852 34.792ZM344.167 31.08C343.676 31.08 343.218 31.0427 342.791 30.968C342.375 30.8933 341.991 30.7653 341.639 30.584C341.287 30.392 340.972 30.1307 340.695 29.8C340.428 29.4693 340.204 29.0533 340.023 28.552L341.287 27.544C341.479 27.8853 341.714 28.152 341.991 28.344C342.268 28.5253 342.599 28.6533 342.983 28.728C343.367 28.8027 343.815 28.84 344.327 28.84C344.732 28.84 345.02 28.9467 345.191 29.16C345.362 29.3627 345.447 29.6187 345.447 29.928C345.447 30.2587 345.335 30.536 345.111 30.76C344.898 30.9733 344.583 31.08 344.167 31.08ZM333.703 31.08L333.863 28.84C334.439 28.84 335.01 28.808 335.575 28.744C336.14 28.68 336.69 28.584 337.223 28.456C337.756 28.328 338.263 28.1627 338.743 27.96C339.234 27.7573 339.692 27.512 340.119 27.224C339.799 27.032 339.452 26.8667 339.079 26.728C338.706 26.5893 338.306 26.488 337.879 26.424C337.463 26.3493 337.02 26.312 336.551 26.312C336.38 26.312 336.199 26.3173 336.007 26.328C335.826 26.3387 335.639 26.36 335.447 26.392C335.255 26.4133 335.063 26.4453 334.871 26.488L334.551 24.296C334.86 24.2107 335.186 24.152 335.527 24.12C335.879 24.0773 336.188 24.056 336.455 24.056C337.031 24.056 337.559 24.12 338.039 24.248C338.53 24.376 338.978 24.536 339.383 24.728C339.799 24.92 340.183 25.112 340.535 25.304C340.898 25.496 341.239 25.656 341.559 25.784C341.89 25.912 342.21 25.976 342.519 25.976H343.111L343.367 28.104C342.908 28.1253 342.476 28.216 342.071 28.376C341.676 28.5253 341.282 28.7173 340.887 28.952C340.503 29.176 340.087 29.4107 339.639 29.656C339.202 29.9013 338.706 30.1307 338.151 30.344C337.596 30.5573 336.956 30.7333 336.231 30.872C335.506 31.0107 334.663 31.08 333.703 31.08ZM338.231 34.68C337.922 34.68 337.655 34.5733 337.431 34.36C337.218 34.1467 337.111 33.8853 337.111 33.576C337.111 33.2667 337.218 32.9947 337.431 32.76C337.655 32.536 337.922 32.424 338.231 32.424C338.54 32.424 338.802 32.536 339.015 32.76C339.239 32.9947 339.351 33.2667 339.351 33.576C339.351 33.8853 339.239 34.1467 339.015 34.36C338.802 34.5733 338.54 34.68 338.231 34.68ZM344.172 31.08L344.332 28.84C344.684 28.84 344.972 28.8133 345.196 28.76C345.42 28.696 345.601 28.5627 345.74 28.36C345.889 28.1467 346.017 27.832 346.124 27.416C346.241 26.9893 346.369 26.4133 346.508 25.688L348.588 26.072C348.545 26.3067 348.487 26.6 348.412 26.952C348.348 27.304 348.316 27.608 348.316 27.864C348.316 28.0667 348.353 28.2427 348.428 28.392C348.513 28.5307 348.652 28.6427 348.844 28.728C349.047 28.8027 349.324 28.84 349.676 28.84C349.953 28.84 350.188 28.8133 350.38 28.76C350.583 28.696 350.753 28.5627 350.892 28.36C351.041 28.1467 351.169 27.8213 351.276 27.384C351.393 26.936 351.505 26.3333 351.612 25.576L353.724 25.912C353.681 26.1573 353.639 26.4187 353.596 26.696C353.553 26.9733 353.516 27.2293 353.484 27.464C353.452 27.6987 353.436 27.8907 353.436 28.04C353.436 28.1787 353.473 28.312 353.548 28.44C353.633 28.5573 353.783 28.6533 353.996 28.728C354.22 28.8027 354.529 28.84 354.924 28.84C355.404 28.84 355.756 28.7387 355.98 28.536C356.215 28.3227 356.332 28.0027 356.332 27.576C356.332 27.3307 356.327 27.0693 356.316 26.792C356.305 26.504 356.284 26.184 356.252 25.832C356.231 25.4693 356.188 25.0587 356.124 24.6L358.188 24.44C358.263 25.3573 358.348 26.104 358.444 26.68C358.54 27.256 358.668 27.704 358.828 28.024C358.999 28.3333 359.223 28.5467 359.5 28.664C359.788 28.7813 360.161 28.84 360.62 28.84C361.025 28.84 361.313 28.9467 361.484 29.16C361.665 29.3627 361.756 29.6187 361.756 29.928C361.756 30.2587 361.644 30.536 361.42 30.76C361.207 30.9733 360.887 31.08 360.46 31.08C360.172 31.08 359.873 31.0533 359.564 31C359.255 30.9573 358.956 30.8667 358.668 30.728C358.38 30.5787 358.124 30.3653 357.9 30.088C357.676 29.8107 357.5 29.4427 357.372 28.984L357.66 29.08C357.511 29.6133 357.308 30.024 357.052 30.312C356.796 30.6 356.481 30.8027 356.108 30.92C355.735 31.0267 355.287 31.08 354.764 31.08C354.284 31.08 353.857 31.016 353.484 30.888C353.111 30.76 352.812 30.552 352.588 30.264C352.375 29.9653 352.263 29.5653 352.252 29.064H352.796C352.583 29.6613 352.337 30.104 352.06 30.392C351.783 30.68 351.447 30.8667 351.052 30.952C350.657 31.0373 350.161 31.08 349.564 31.08C349.201 31.08 348.844 31.0427 348.492 30.968C348.14 30.8827 347.825 30.696 347.548 30.408C347.271 30.1093 347.068 29.64 346.94 29L347.804 28.968C347.58 29.5973 347.287 30.0613 346.924 30.36C346.572 30.6587 346.167 30.856 345.708 30.952C345.249 31.0373 344.737 31.08 344.172 31.08ZM360.469 31.08L360.629 28.84C361.269 28.84 361.759 28.808 362.101 28.744C362.442 28.68 362.677 28.5627 362.805 28.392C362.943 28.2107 363.013 27.9547 363.013 27.624C363.013 27.3253 362.97 26.968 362.885 26.552C362.81 26.136 362.709 25.704 362.581 25.256C362.463 24.808 362.335 24.3973 362.197 24.024L364.405 23.416C364.543 23.7787 364.677 24.2 364.805 24.68C364.933 25.16 365.039 25.656 365.125 26.168C365.21 26.6693 365.253 27.1547 365.253 27.624C365.253 28.3493 365.135 28.9413 364.901 29.4C364.666 29.848 364.335 30.1947 363.909 30.44C363.493 30.6853 362.991 30.856 362.405 30.952C361.818 31.0373 361.173 31.08 360.469 31.08ZM364.805 22.12C364.495 22.12 364.229 22.0133 364.005 21.8C363.791 21.576 363.685 21.3147 363.685 21.016C363.685 20.7067 363.791 20.44 364.005 20.216C364.229 19.992 364.495 19.88 364.805 19.88C365.103 19.88 365.359 19.992 365.573 20.216C365.786 20.44 365.893 20.7067 365.893 21.016C365.893 21.3147 365.786 21.576 365.573 21.8C365.359 22.0133 365.103 22.12 364.805 22.12ZM362.037 22.104C361.727 22.104 361.461 21.9973 361.237 21.784C361.023 21.56 360.917 21.2987 360.917 21C360.917 20.6907 361.023 20.424 361.237 20.2C361.461 19.976 361.727 19.864 362.037 19.864C362.335 19.864 362.591 19.976 362.805 20.2C363.018 20.424 363.125 20.6907 363.125 21C363.125 21.2987 363.018 21.56 362.805 21.784C362.591 21.9973 362.335 22.104 362.037 22.104Z" fill="white"/>
</g>
<defs>
<filter id="filter0_dii_8_19319" x="0" y="0" width="655" height="52" filterUnits="userSpaceOnUse" color-interpolation-filters="sRGB">
<feFlood flood-opacity="0" result="BackgroundImageFix"/>
<feColorMatrix in="SourceAlpha" type="matrix" values="0 0 0 0 0 0 0 0 0 0 0 0 0 0 0 0 0 0 127 0" result="hardAlpha"/>
<feOffset dy="1"/>
<feGaussianBlur stdDeviation="1"/>
<feComposite in2="hardAlpha" operator="out"/>
<feColorMatrix type="matrix" values="0 0 0 0 0.0392157 0 0 0 0 0.0496732 0 0 0 0 0.0705882 0 0 0 0.05 0"/>
<feBlend mode="normal" in2="BackgroundImageFix" result="effect1_dropShadow_8_19319"/>
<feBlend mode="normal" in="SourceGraphic" in2="effect1_dropShadow_8_19319" result="shape"/>
<feColorMatrix in="SourceAlpha" type="matrix" values="0 0 0 0 0 0 0 0 0 0 0 0 0 0 0 0 0 0 127 0" result="hardAlpha"/>
<feOffset dy="-2"/>
<feComposite in2="hardAlpha" operator="arithmetic" k2="-1" k3="1"/>
<feColorMatrix type="matrix" values="0 0 0 0 0.0392157 0 0 0 0 0.0496732 0 0 0 0 0.0705882 0 0 0 0.05 0"/>
<feBlend mode="normal" in2="shape" result="effect2_innerShadow_8_19319"/>
<feColorMatrix in="SourceAlpha" type="matrix" values="0 0 0 0 0 0 0 0 0 0 0 0 0 0 0 0 0 0 127 0" result="hardAlpha"/>
<feMorphology radius="1" operator="erode" in="SourceAlpha" result="effect3_innerShadow_8_19319"/>
<feOffset/>
<feComposite in2="hardAlpha" operator="arithmetic" k2="-1" k3="1"/>
<feColorMatrix type="matrix" values="0 0 0 0 0.0392157 0 0 0 0 0.0496732 0 0 0 0 0.0705882 0 0 0 0.18 0"/>
<feBlend mode="normal" in2="effect2_innerShadow_8_19319" result="effect3_innerShadow_8_19319"/>
</filter>
<linearGradient id="paint0_linear_8_19319" x1="327.5" y1="1" x2="327.5" y2="49" gradientUnits="userSpaceOnUse">
<stop stop-color="white" stop-opacity="0.12"/>
<stop offset="1" stop-color="white" stop-opacity="0"/>
</linearGradient>
</defs>
</svg>
