<svg width="54" height="54" viewBox="0 0 54 54" fill="none" xmlns="http://www.w3.org/2000/svg">
<path d="M36 6.18751C38.169 6.18751 39.626 6.19109 40.7129 6.33721C41.7512 6.47681 42.1955 6.71806 42.4887 7.01127C42.782 7.30448 43.0232 7.74885 43.1628 8.78714C43.3089 9.87397 43.3125 11.331 43.3125 13.5V27C43.3125 29.169 43.3089 30.626 43.1628 31.7129C43.0232 32.7512 42.782 33.1955 42.4887 33.4887C42.1955 33.782 41.7512 34.0232 40.7129 34.1628C39.626 34.3089 38.169 34.3125 36 34.3125H20.25C19.318 34.3125 18.5625 35.068 18.5625 36C18.5625 36.932 19.318 37.6875 20.25 37.6875L36.117 37.6875C38.1385 37.6876 39.8243 37.6876 41.1626 37.5077C42.5751 37.3178 43.8504 36.9 44.8752 35.8752C45.9 34.8504 46.3178 33.5751 46.5077 32.1626C46.6876 30.8243 46.6876 29.1386 46.6875 27.117V13.383C46.6876 11.3614 46.6876 9.67569 46.5077 8.33743C46.3178 6.92489 45.9 5.64959 44.8752 4.62478C43.8504 3.59998 42.5751 3.18222 41.1626 2.99231C39.8243 2.81239 38.1386 2.81244 36.1171 2.8125L4.5 2.81251C3.56802 2.81251 2.8125 3.56803 2.8125 4.50001C2.8125 5.43199 3.56802 6.18751 4.5 6.18751H36Z" fill="#199491"/>
<path d="M22.5 12.9375C21.568 12.9375 20.8125 13.693 20.8125 14.625C20.8125 15.557 21.568 16.3125 22.5 16.3125H36C36.932 16.3125 37.6875 15.557 37.6875 14.625C37.6875 13.693 36.932 12.9375 36 12.9375H22.5Z" fill="#199491"/>
<path fill-rule="evenodd" clip-rule="evenodd" d="M8.89933 23.0625L27 23.0625C27.932 23.0625 28.6875 23.818 28.6875 24.75C28.6875 25.682 27.932 26.4375 27 26.4375H15.1875V49.5C15.1875 50.432 14.432 51.1875 13.5 51.1875C12.568 51.1875 11.8125 50.432 11.8125 49.5V39.9375H6.18752V49.5C6.18752 50.432 5.432 51.1875 4.50002 51.1875C3.56804 51.1875 2.81252 50.432 2.81252 49.5L2.81251 29.1493C2.81239 28.1755 2.81229 27.2826 2.90994 26.5563C3.01747 25.7565 3.27048 24.9111 3.96578 24.2158C4.66109 23.5205 5.50647 23.2675 6.3063 23.1599C7.03262 23.0623 7.9255 23.0624 8.89933 23.0625ZM11.8125 36.5625V26.4375H9.00002C7.89165 26.4375 7.23014 26.4411 6.75601 26.5048C6.53875 26.5341 6.42994 26.5685 6.38094 26.5886C6.36958 26.5933 6.36213 26.5969 6.35778 26.5992L6.3523 26.6023L6.3492 26.6078C6.34693 26.6121 6.34329 26.6196 6.33862 26.6309C6.31846 26.6799 6.28405 26.7888 6.25484 27.006C6.1911 27.4801 6.18752 28.1417 6.18752 29.25V36.5625H11.8125Z" fill="#199491"/>
<path fill-rule="evenodd" clip-rule="evenodd" d="M9 8.4375C5.58274 8.4375 2.8125 11.2077 2.8125 14.625C2.8125 18.0423 5.58274 20.8125 9 20.8125C12.4173 20.8125 15.1875 18.0423 15.1875 14.625C15.1875 11.2077 12.4173 8.4375 9 8.4375ZM6.1875 14.625C6.1875 13.0717 7.4467 11.8125 9 11.8125C10.5533 11.8125 11.8125 13.0717 11.8125 14.625C11.8125 16.1783 10.5533 17.4375 9 17.4375C7.4467 17.4375 6.1875 16.1783 6.1875 14.625Z" fill="#199491"/>
</svg>
