<svg width="120" height="120" viewBox="0 0 120 120" fill="none" xmlns="http://www.w3.org/2000/svg">
<path d="M60 0C73.2906 1.58488e-07 86.205 4.4128 96.7165 12.5459C107.228 20.6789 114.742 32.0719 118.078 44.9368C121.415 57.8018 120.386 71.4104 115.152 83.6271C109.918 95.8439 100.777 105.977 89.1615 112.437C77.5463 118.896 64.115 121.316 50.9757 119.317C37.8363 117.318 25.7325 111.013 16.5638 101.392C7.39504 91.7704 1.68041 79.3769 0.316689 66.1565C-1.04703 52.9361 2.01735 39.637 9.02891 28.3464L21.7717 36.2598C16.513 44.7278 14.2147 54.7021 15.2375 64.6174C16.2603 74.5327 20.5463 83.8278 27.4228 91.044C34.2993 98.2601 43.3772 102.989 53.2317 104.488C63.0863 105.987 73.1597 104.172 81.8711 99.3275C90.5825 94.4829 97.4389 86.8829 101.364 77.7204C105.289 68.5578 106.061 58.3513 103.559 48.7026C101.056 39.0539 95.4211 30.5092 87.5374 24.4094C79.6538 18.3096 69.9679 15 60 15V0Z" fill="#199491"/>
</svg>
