<svg width="54" height="54" viewBox="0 0 54 54" fill="none" xmlns="http://www.w3.org/2000/svg">
<path fill-rule="evenodd" clip-rule="evenodd" d="M17.4228 7.4141C17.7953 7.27863 18.2036 7.27863 18.5761 7.4141L30.9511 11.9141C31.5627 12.1365 31.9919 12.6908 32.0542 13.3385C32.1165 13.9863 31.8007 14.6122 31.2427 14.947L26.437 17.8304V21.125C26.437 25.8646 22.7167 29.8125 17.9995 29.8125C13.2822 29.8125 9.56195 25.8646 9.56195 21.125V17.8304L7.31195 16.4804V22.5C7.31195 23.432 6.55643 24.1875 5.62445 24.1875C4.69247 24.1875 3.93695 23.432 3.93695 22.5V13.5C3.93695 12.7904 4.38088 12.1566 5.04776 11.9141L17.4228 7.4141ZM22.8992 21.3155C22.9547 21.3307 23.0073 21.3456 23.0571 21.3604C22.939 24.2382 20.6658 26.4375 17.9995 26.4375C15.3331 26.4375 13.0598 24.2382 12.9418 21.3604C12.9916 21.3456 13.0442 21.3307 13.0997 21.3155C13.9578 21.0815 15.4918 20.8125 17.9995 20.8125C20.5071 20.8125 22.0411 21.0815 22.8992 21.3155ZM9.53003 13.8754L12.1177 15.428C12.6259 15.733 12.937 16.2822 12.937 16.875V17.8846C14.1187 17.6336 15.758 17.4375 17.9995 17.4375C20.2409 17.4375 21.8802 17.6336 23.062 17.8846V16.875C23.062 16.2822 23.373 15.733 23.8812 15.428L26.4689 13.8754L17.9995 10.7956L9.53003 13.8754Z" fill="#199491"/>
<path fill-rule="evenodd" clip-rule="evenodd" d="M39.967 15.2949C39.585 15.1517 39.164 15.1517 38.7819 15.2949L29.7819 18.6699C29.1647 18.9014 28.7388 19.4711 28.6913 20.1285C28.6439 20.786 28.9836 21.4109 29.5612 21.7286L32.7779 23.4978V25.4659C32.7779 29.1091 35.7313 32.0625 39.3745 32.0625C43.0177 32.0625 45.9711 29.1091 45.9711 25.4659V23.4978L49.1877 21.7286C49.7653 21.4109 50.105 20.786 50.0576 20.1285C50.0102 19.4711 49.5842 18.9014 48.967 18.6699L39.967 15.2949ZM39.3745 28.6875C37.7717 28.6875 36.4423 27.5171 36.1944 25.9844C36.8176 25.8478 37.8309 25.7096 39.3745 25.7096C40.9181 25.7096 41.9314 25.8478 42.5546 25.9844C42.3066 27.5171 40.9772 28.6875 39.3745 28.6875ZM39.3745 22.3346C40.7132 22.3346 41.7688 22.4265 42.5961 22.5593V22.5C42.5961 21.8846 42.9311 21.318 43.4703 21.0214L44.344 20.5408L39.3745 18.6773L34.4049 20.5408L35.2786 21.0214C35.8179 21.318 36.1529 21.8846 36.1529 22.5V22.5593C36.9801 22.4265 38.0358 22.3346 39.3745 22.3346Z" fill="#199491"/>
<path fill-rule="evenodd" clip-rule="evenodd" d="M9.04384 34.36C14.5315 31.2967 21.4685 31.2967 26.9562 34.36C27.1136 34.4479 27.3145 34.554 27.5465 34.6765C28.6081 35.237 30.3198 36.1407 31.4899 37.2145C32.2146 37.8795 33.0156 38.8511 33.1638 40.1221C33.3263 41.5156 32.6583 42.7372 31.5551 43.7225C29.7362 45.3471 27.5074 46.6875 24.6137 46.6875H11.3863C8.49263 46.6875 6.26378 45.3471 4.44488 43.7225C3.34173 42.7372 2.6737 41.5156 2.83617 40.1221C2.98437 38.8511 3.78537 37.8795 4.51007 37.2145C5.68023 36.1407 7.39195 35.237 8.45346 34.6765C8.68546 34.554 8.8864 34.4479 9.04384 34.36ZM25.3111 37.3069C20.8459 34.8144 15.1541 34.8144 10.6889 37.3069C10.4146 37.46 10.1224 37.6156 9.82244 37.7754C8.76137 38.3404 7.60228 38.9576 6.79196 39.7012C6.28398 40.1674 6.19672 40.4421 6.18846 40.513C6.18696 40.5252 6.18273 40.5595 6.2213 40.6418C6.26891 40.7432 6.39168 40.9361 6.69311 41.2053C8.18516 42.538 9.64385 43.3125 11.3863 43.3125H24.6137C26.3562 43.3125 27.8148 42.538 29.3069 41.2053C29.6083 40.9361 29.7311 40.7432 29.7787 40.6418C29.8173 40.5595 29.8132 40.5265 29.8117 40.5143C29.8034 40.4434 29.716 40.1674 29.208 39.7012C28.3977 38.9576 27.2388 38.3405 26.1777 37.7755C25.8777 37.6157 25.5854 37.4601 25.3111 37.3069Z" fill="#199491"/>
<path fill-rule="evenodd" clip-rule="evenodd" d="M36.4732 38.1015C39.1787 37.311 42.1558 37.6539 44.6124 39.1167C44.8358 39.2497 45.0672 39.3812 45.3 39.5136C46.0872 39.9612 46.8906 40.418 47.4568 40.9722C47.7061 41.2162 47.7832 41.3653 47.8056 41.4188C47.7801 41.4733 47.7106 41.5818 47.5348 41.7493C46.4457 42.7868 45.4602 43.3124 44.3358 43.3124H35.9999C35.0679 43.3124 34.3124 44.068 34.3124 44.9999C34.3124 45.9319 35.0679 46.6874 35.9999 46.6874H44.3358C46.6884 46.6874 48.4686 45.5211 49.8628 44.1929C50.7551 43.3427 51.3009 42.2795 51.1688 41.0706C51.048 39.9659 50.3941 39.1246 49.8176 38.5603C48.8953 37.6575 47.5387 36.8948 46.7503 36.4515C46.5856 36.3589 46.445 36.2799 46.3391 36.2168C43.0567 34.2624 39.1086 33.8153 35.5266 34.862C34.632 35.1234 34.1187 36.0605 34.3801 36.955C34.6415 37.8496 35.5786 38.3629 36.4732 38.1015ZM47.8126 41.4023C47.8193 41.3851 47.8198 41.3767 47.8184 41.3768C47.8178 41.3769 47.8169 41.3783 47.816 41.381C47.8147 41.3852 47.8132 41.3923 47.8126 41.4023Z" fill="#199491"/>
</svg>
